<?xml version="1.0" encoding="utf-8"?>
<!-- Generator: Adobe Illustrator 15.0.0, SVG Export Plug-In . SVG Version: 6.00 Build 0)  -->
<svg version="1.2" baseProfile="tiny" id="Layer_1" xmlns="http://www.w3.org/2000/svg" xmlns:xlink="http://www.w3.org/1999/xlink"
	 x="0px" y="0px" width="388.312px" height="723.376px" viewBox="0 0 388.312 723.376" xml:space="preserve">
<polygon fill="#F47920" points="32.868,470.306 32.627,470.306 32.627,470.066 33.828,468.866 35.028,467.425 35.508,467.425 
	37.667,466.226 42.467,463.826 40.307,462.145 42.467,460.706 42.947,460.465 43.666,459.985 44.146,459.744 45.826,458.304 
	47.745,456.865 48.465,456.144 49.425,455.424 50.145,454.705 51.104,453.984 53.744,451.583 53.984,451.104 54.944,450.624 
	55.424,450.384 56.144,449.904 56.624,449.665 56.864,449.423 57.104,449.423 59.502,448.703 61.183,448.464 62.143,448.464 
	62.383,448.464 62.623,448.464 64.062,448.223 65.981,448.464 66.461,448.703 67.902,448.703 68.862,448.703 69.101,448.703 
	72.46,448.703 72.701,448.703 72.941,448.703 76.06,447.984 79.18,447.264 80.859,446.543 82.299,446.064 84.219,445.343 
	86.618,443.903 88.778,441.744 89.978,440.783 89.978,440.543 91.417,439.583 92.376,439.343 92.618,439.343 94.537,439.103 
	100.056,439.103 101.255,438.623 101.975,438.143 102.455,437.422 103.415,435.982 103.895,435.262 104.615,434.062 
	104.854,432.623 104.854,431.902 105.095,430.703 105.095,429.982 104.854,429.502 104.615,429.022 104.375,428.542 
	104.135,427.822 103.655,426.622 103.655,426.142 103.655,425.421 103.415,424.461 103.415,424.221 103.415,422.301 103.415,421.34 
	103.415,420.861 103.415,420.381 103.655,420.14 103.655,419.901 103.655,419.66 103.895,418.701 104.135,418.22 104.854,417.021 
	104.854,416.781 105.095,416.781 105.575,416.3 105.814,416.061 106.055,415.82 107.254,415.1 108.694,414.14 109.654,413.66 
	113.014,412.46 114.212,412.22 117.812,410.541 118.533,409.82 119.013,409.34 119.251,409.099 120.452,407.66 120.932,407.179 
	122.372,404.059 122.612,403.58 123.572,402.378 124.532,401.66 125.012,401.419 125.25,401.179 125.491,401.179 127.411,400.458 
	127.65,400.458 129.57,399.739 130.531,399.259 130.77,399.259 131.01,399.259 131.25,399.019 131.729,398.779 132.45,398.298 
	133.65,397.098 136.529,394.218 137.01,393.499 137.25,393.258 137.728,392.539 138.208,392.058 139.889,390.858 141.568,389.658 
	142.767,389.177 146.126,387.018 146.606,386.778 149.008,385.337 149.487,385.097 150.447,384.857 150.927,384.617 
	151.167,384.617 151.167,384.377 151.887,384.377 154.046,384.857 154.526,384.617 155.966,384.137 156.926,383.897 
	159.325,383.177 161.004,382.216 163.644,381.498 164.844,381.256 165.324,380.777 165.563,380.537 166.043,379.337 
	166.522,378.617 167.003,378.136 167.484,377.658 167.723,377.416 168.203,377.176 168.443,377.176 168.683,376.937 
	169.403,376.697 170.603,375.736 171.323,375.016 171.562,374.056 171.803,372.617 172.283,371.416 172.283,371.175 
	172.522,370.697 172.763,370.216 173.242,369.015 174.203,368.295 174.921,368.056 175.402,368.056 176.362,368.295 
	176.842,368.535 178.042,369.015 179.001,369.496 181.161,369.976 181.64,370.216 182.121,370.216 182.361,370.216 183.081,369.976 
	184.52,368.775 185.96,367.576 187.4,366.615 188.359,366.135 188.84,366.135 189.08,365.896 189.32,365.896 191.239,366.135 
	191.958,366.135 192.438,365.896 195.798,362.775 196.039,362.294 196.517,361.575 196.757,360.374 196.757,359.175 
	196.517,358.454 194.119,354.374 193.159,353.414 191.719,352.454 190.039,351.734 189.8,351.734 189.32,351.254 189.08,350.774 
	188.84,350.054 188.12,347.653 188.12,347.413 188.12,347.173 187.16,345.733 186.68,344.533 186.439,344.053 185.96,342.613 
	185.721,342.613 185.721,342.373 184.281,341.412 184.281,341.173 184.041,341.173 183.56,340.693 183.32,340.693 183.081,340.213 
	182.841,339.973 182.361,339.973 182.121,339.493 181.64,339.252 180.201,338.292 179.001,337.572 174.921,335.652 173.962,334.692 
	173.481,334.452 171.083,333.252 169.883,332.052 168.924,329.652 167.484,326.531 166.764,324.131 165.805,322.211 164.844,320.29 
	164.125,319.09 161.245,315.97 160.765,315.49 160.044,314.77 159.805,314.53 158.846,313.81 157.886,313.09 156.685,313.09 
	156.206,313.09 155.005,312.61 153.085,310.93 151.167,309.009 150.927,309.009 149.487,307.809 148.046,306.369 147.328,305.409 
	147.328,305.169 146.847,303.729 146.847,303.009 146.847,301.328 146.847,300.848 146.126,298.688 145.408,296.048 
	145.167,295.328 144.928,295.088 144.208,293.168 142.767,289.567 142.528,289.087 142.049,288.848 141.568,288.368 
	139.408,287.407 138.93,287.167 138.688,287.167 138.688,286.927 138.208,286.687 137.969,286.447 137.728,286.447 137.728,286.207 
	137.25,285.727 135.57,285.247 135.09,285.247 134.129,285.967 131.01,286.927 129.33,287.167 129.091,287.167 128.611,287.167 
	128.371,287.167 128.13,286.927 127.411,286.687 126.691,286.207 126.451,285.967 125.491,285.247 125.25,284.767 125.012,284.767 
	124.771,284.527 124.291,284.047 123.811,284.047 122.612,283.567 122.372,283.567 122.132,283.327 121.892,283.087 
	121.652,282.847 121.412,282.367 121.412,282.127 121.171,281.887 121.171,281.407 120.692,278.286 119.731,273.966 
	119.013,272.046 119.013,271.806 119.493,270.125 119.731,269.645 119.972,269.165 119.731,269.165 119.731,268.205 
	119.731,266.765 120.452,265.805 120.932,264.365 121.171,262.925 120.932,261.485 120.932,260.764 120.452,257.644 
	120.211,255.724 120.211,253.804 120.211,253.324 120.452,251.404 120.211,248.283 119.972,247.323 119.731,246.603 
	117.573,244.923 116.373,243.243 115.653,242.523 113.733,240.122 112.773,239.162 112.534,238.922 110.374,238.202 
	108.934,237.482 107.735,237.242 104.615,236.762 104.375,236.762 103.895,236.762 103.415,236.762 103.176,237.002 
	102.696,237.242 102.216,237.482 101.975,237.722 101.736,237.962 99.816,239.642 99.576,239.642 98.855,240.122 97.896,240.122 
	97.416,240.122 96.936,239.882 96.217,239.882 95.977,239.882 95.737,239.642 94.537,239.162 94.296,239.162 94.057,238.922 
	93.817,238.682 93.336,238.442 92.856,237.962 92.138,237.002 91.896,236.522 91.658,235.802 91.658,235.562 91.658,234.842 
	91.896,234.602 92.376,233.642 92.618,233.402 92.618,232.442 92.856,232.442 92.618,232.202 92.618,231.961 92.618,231.722 
	92.618,231.481 92.376,228.841 91.417,227.641 91.417,226.921 90.938,226.201 90.218,225.241 90.218,224.521 90.458,224.281 
	91.178,223.801 92.618,223.801 93.097,223.321 93.097,223.08 93.097,222.361 92.856,219.48 92.618,218.52 92.376,217.56 
	92.138,217.32 92.138,217.08 90.458,215.88 90.698,215.16 91.417,213.48 92.618,211.8 92.856,211.559 93.336,210.839 
	94.537,210.359 94.777,209.879 95.017,209.639 95.017,209.399 95.257,208.919 95.737,208.439 95.977,207.479 95.737,206.999 
	95.737,206.759 95.497,206.759 95.257,206.519 95.017,206.519 95.017,206.279 94.777,206.279 94.537,206.279 94.296,206.279 
	93.097,206.279 92.856,206.279 91.417,205.799 90.458,204.599 90.458,204.359 90.458,204.118 90.218,203.879 90.218,203.399 
	89.978,202.679 90.218,201.958 90.218,201.719 90.698,200.038 91.178,198.838 91.178,198.358 91.658,197.158 92.138,196.198 
	92.376,195.958 92.376,195.718 93.097,194.998 93.817,193.318 94.057,193.318 94.057,193.077 94.057,192.838 94.777,191.638 
	94.777,191.158 94.777,190.437 94.296,189.717 94.057,189.717 94.057,189.477 93.817,189.237 93.097,188.517 91.896,187.077 
	91.658,186.597 91.658,185.637 91.658,185.157 91.896,184.917 92.856,183.956 94.777,182.996 95.497,182.277 95.977,181.556 
	96.217,180.356 96.456,179.156 96.697,178.436 96.936,178.196 97.177,177.956 97.177,177.716 97.657,177.476 98.616,177.476 
	99.096,177.476 99.816,177.716 102.216,178.676 104.375,178.916 105.575,178.916 105.814,178.676 106.294,178.196 107.014,176.996 
	107.494,175.796 107.974,175.076 108.934,174.596 109.174,174.596 109.414,174.356 109.654,174.356 110.614,174.116 
	110.854,174.116 111.333,173.876 113.014,171.235 113.253,170.995 113.253,170.275 113.014,169.555 113.253,169.075 
	113.733,168.355 114.212,167.635 115.413,166.675 116.613,164.755 116.853,164.275 116.853,164.035 116.853,163.315 
	116.853,163.075 116.613,162.834 116.613,162.595 116.133,162.115 114.453,160.434 113.973,159.714 113.733,159.234 
	113.733,158.754 113.973,158.274 114.212,157.554 115.413,156.834 118.533,156.834 119.251,157.074 119.731,157.554 
	120.932,157.314 121.171,157.314 122.132,155.874 123.572,153.953 123.811,153.953 123.811,153.234 124.052,152.514 
	124.291,152.273 124.291,151.554 124.052,150.833 124.052,150.353 123.572,149.873 122.612,148.673 121.892,147.233 
	121.412,146.753 121.171,146.273 119.251,144.353 118.771,143.872 118.771,143.392 119.013,141.952 118.771,140.032 
	118.533,139.312 118.533,138.832 118.053,138.352 118.053,138.112 116.373,136.672 115.893,136.192 114.453,134.992 
	113.973,134.272 113.493,133.311 112.293,131.391 112.054,130.431 110.854,128.031 109.654,126.591 109.414,125.631 
	109.174,123.951 109.174,123.71 108.934,123.231 109.174,122.51 108.934,122.031 108.934,121.79 108.454,121.551 107.014,121.79 
	106.535,121.79 106.055,121.31 105.814,120.35 105.814,119.63 106.294,118.67 106.535,117.95 106.535,117.23 106.535,116.03 
	106.775,115.55 106.775,115.31 107.254,115.07 107.494,114.829 107.494,114.59 108.454,113.869 111.333,112.189 111.574,111.709 
	113.493,110.989 113.733,110.749 114.453,110.269 114.693,110.269 115.173,109.549 115.653,109.309 115.893,109.069 
	115.893,108.589 117.812,107.869 119.251,107.869 120.211,107.389 125.971,104.029 126.931,103.548 128.13,102.108 129.091,101.628 
	130.051,101.388 130.291,101.148 130.051,99.948 130.051,99.468 131.49,97.548 131.971,96.827 132.45,95.868 132.45,95.148 
	133.169,93.707 133.41,93.227 134.369,93.227 136.049,91.307 137.01,90.587 138.208,90.107 139.647,89.867 142.289,88.187 
	142.767,87.467 143.248,85.787 143.248,85.547 143.248,85.306 143.008,85.067 142.767,85.067 142.049,85.067 141.328,85.547 
	140.128,86.746 139.408,86.987 139.168,87.227 138.449,87.227 137.969,87.227 137.728,86.987 137.728,86.027 139.889,81.466 
	140.369,80.746 141.808,80.026 142.767,79.786 143.488,79.786 143.728,79.546 147.567,76.906 147.567,76.666 147.567,76.186 
	148.046,75.466 151.167,74.026 152.847,72.826 156.926,67.545 157.645,65.865 157.886,65.145 158.125,64.664 160.525,62.504 
	161.965,60.344 162.925,58.424 162.925,57.464 163.885,55.064 164.364,54.344 164.364,53.864 165.324,52.183 167.003,49.543 
	167.003,49.063 167.244,48.823 166.764,48.103 165.563,46.903 165.324,46.663 165.563,45.223 166.522,43.783 166.764,42.582 
	167.723,40.422 167.963,40.182 168.203,39.942 169.403,39.702 169.883,39.222 170.123,38.742 170.363,37.782 170.123,36.822 
	170.123,36.581 170.123,36.342 171.323,33.941 171.562,32.981 171.803,32.501 171.803,32.261 172.283,31.541 172.763,31.061 
	173.722,29.381 175.402,27.221 176.842,26.741 177.562,26.021 178.762,24.58 181.88,22.42 182.121,22.18 181.88,21.46 
	181.401,20.26 181.161,20.26 181.401,19.54 182.121,19.06 182.361,18.82 182.841,18.82 183.081,18.58 184.041,18.58 184.281,18.58 
	185.24,18.58 185.96,18.58 185.96,18.34 186.2,18.34 186.439,18.34 186.68,18.34 186.919,18.1 187.64,17.14 187.879,16.9 
	188.12,16.66 188.359,16.419 188.359,15.94 188.84,14.979 189.08,14.019 189.08,13.78 190.039,12.339 190.519,12.339 190.76,12.099 
	191.239,12.099 194.598,12.099 195.558,12.099 197.718,11.859 200.597,10.179 201.317,9.939 202.277,9.699 203.476,8.739 
	203.716,8.979 203.957,9.219 205.636,10.179 208.035,11.619 210.675,13.299 213.554,14.979 215.234,15.94 222.673,20.5 
	230.111,25.06 232.751,26.741 232.992,26.741 233.23,26.981 233.951,27.461 238.271,30.101 240.669,31.781 246.429,35.141 
	251.468,38.262 252.667,38.982 253.388,39.462 255.787,40.902 259.626,43.302 261.785,44.983 262.986,45.702 263.466,45.943 
	263.705,46.183 263.945,46.183 265.146,47.143 265.384,47.143 272.103,51.703 272.583,51.943 273.064,52.183 274.023,52.903 
	274.984,53.384 275.943,53.864 278.343,55.304 279.783,56.264 280.742,56.984 281.222,57.224 284.101,58.904 285.781,59.864 
	285.781,60.104 290.101,62.744 294.9,65.625 303.058,70.425 304.978,71.385 305.218,71.625 309.777,74.026 310.976,74.745 
	313.855,76.186 316.496,77.626 320.814,80.266 321.054,80.266 321.535,80.506 321.775,80.746 323.695,81.706 323.695,81.946 
	324.173,82.186 324.414,82.186 325.375,82.907 328.253,84.347 328.734,84.587 328.734,84.827 329.693,85.306 330.173,85.547 
	330.414,85.787 332.093,86.746 333.292,87.467 334.013,87.707 335.212,88.427 335.453,88.667 336.412,89.147 338.812,90.587 
	339.292,90.827 340.972,91.787 341.931,92.267 343.851,93.467 344.33,93.707 344.81,94.188 345.291,94.428 345.531,94.428 
	347.929,95.868 348.65,96.348 348.89,96.348 349.609,96.827 351.289,97.788 351.529,98.028 353.929,99.468 354.167,99.468 
	357.048,101.148 358.248,101.868 362.087,104.029 364.248,105.469 365.925,106.429 367.367,107.149 367.605,107.389 
	369.046,108.109 370.486,109.069 374.326,111.229 374.804,111.469 376.484,112.43 377.445,113.389 377.925,113.63 378.644,113.63 
	380.564,113.63 379.843,118.19 379.363,120.11 378.164,125.151 377.685,127.071 376.964,129.951 376.484,131.631 375.765,134.751 
	375.285,136.432 375.285,136.912 375.044,137.872 374.804,138.112 373.365,143.392 372.886,145.073 371.925,147.233 
	370.964,149.393 368.806,154.194 367.847,156.354 367.367,157.314 365.447,163.555 364.966,164.514 364.488,165.235 
	364.248,165.235 362.328,168.835 361.367,170.755 360.648,172.196 359.208,174.836 358.968,175.316 358.488,176.516 
	357.767,177.716 357.289,178.436 357.048,178.916 355.369,182.036 354.648,183.476 354.41,184.197 353.449,188.997 353.208,190.677 
	352.968,191.877 352.73,192.118 352.73,192.598 352.73,193.077 352.73,193.318 352.488,193.798 352.488,194.758 352.25,195.958 
	352.25,196.198 352.25,196.678 352.009,197.878 348.89,197.638 348.65,197.878 348.41,198.118 347.929,198.838 347.929,199.078 
	346.011,201.958 345.05,202.679 344.57,203.159 342.41,204.839 341.931,205.319 341.691,205.559 340.972,206.279 339.292,208.199 
	339.05,208.439 338.812,209.159 338.091,210.839 337.613,212.519 338.091,214.2 336.652,215.4 333.533,216.12 332.572,216.36 
	330.892,216.6 329.693,216.84 327.773,217.32 325.855,217.8 325.613,217.8 321.775,217.08 317.214,216.36 316.255,216.6 
	315.775,216.84 315.775,217.08 315.535,217.32 315.056,217.8 313.855,219.24 312.896,220.44 312.656,220.92 312.416,223.561 
	312.175,225.241 311.937,228.121 311.697,231.481 311.457,233.402 311.457,233.882 311.216,236.762 311.216,237.002 
	310.498,239.402 309.777,241.562 309.056,242.523 306.658,242.042 306.177,242.042 302.337,244.683 301.859,246.843 
	301.859,247.563 302.578,250.924 302.818,253.084 301.619,254.764 300.417,256.444 299.939,256.924 299.218,257.884 
	298.978,258.124 298.5,258.844 298.259,259.084 298.019,259.564 297.539,260.764 297.06,262.685 297.298,263.405 297.298,263.885 
	297.779,265.325 298.259,267.485 298.259,267.725 299.458,269.645 300.417,269.886 300.898,270.125 305.218,271.566 
	308.097,273.246 311.216,274.686 311.216,275.166 311.937,276.606 311.937,277.086 311.457,277.566 311.697,278.046 
	312.896,277.086 314.335,276.606 314.576,276.366 315.296,275.886 316.015,274.686 318.896,272.285 318.896,272.526 
	318.896,273.966 318.416,274.446 318.896,274.926 320.095,273.726 320.576,274.206 320.814,274.686 321.294,274.206 
	321.535,274.206 322.734,274.686 323.695,274.446 323.935,274.686 323.935,274.446 324.894,273.966 326.093,273.726 
	326.814,272.765 327.054,272.526 327.535,272.285 327.773,272.285 328.013,272.526 328.734,272.765 329.214,273.246 
	329.453,273.486 330.173,273.966 330.652,274.206 331.853,274.926 334.972,275.886 337.373,276.846 337.613,276.846 
	338.332,277.086 339.771,277.806 340.972,278.526 342.89,280.206 343.371,280.447 344.33,281.166 344.33,281.407 344.57,281.407 
	344.81,281.647 345.771,282.127 346.011,282.127 347.21,282.847 349.849,283.327 356.568,285.007 357.527,285.007 358.248,285.007 
	358.968,282.607 359.447,279.006 359.687,275.646 359.208,274.446 356.568,269.406 356.089,269.165 353.929,267.245 
	353.929,266.525 354.648,266.045 356.328,266.285 357.048,267.005 358.728,268.205 362.808,276.366 363.046,285.727 
	363.527,288.368 364.007,292.448 364.488,296.528 364.488,299.409 364.488,303.489 364.488,303.969 364.248,305.889 
	364.007,308.049 363.767,310.93 363.527,313.33 363.527,313.57 363.287,315.25 363.287,316.93 363.287,317.65 363.046,319.09 
	362.568,321.491 362.328,323.411 362.087,324.371 361.607,326.051 361.607,327.011 361.126,328.931 359.687,335.652 
	359.447,336.852 359.208,337.812 359.208,338.292 358.728,339.493 358.728,340.213 358.488,340.452 358.488,341.412 
	358.248,341.653 357.767,344.053 357.767,344.293 357.289,345.733 357.289,346.453 357.048,347.173 356.808,347.893 
	356.568,349.094 356.328,350.294 356.089,350.774 355.847,351.974 355.609,352.934 355.609,353.414 355.369,354.134 
	354.888,356.294 353.689,360.615 352.73,364.695 352.25,366.375 351.769,369.255 351.529,370.697 350.81,375.016 351.289,375.496 
	351.529,375.736 351.05,375.976 350.57,377.896 349.849,380.057 349.849,380.777 349.609,381.256 349.371,382.937 348.41,388.218 
	346.73,397.338 345.771,403.339 345.531,404.779 344.81,408.619 344.33,410.78 344.33,411.26 344.33,411.5 343.851,413.42 
	343.851,414.14 343.371,417.021 343.371,418.22 342.89,420.14 342.652,422.782 342.41,423.501 342.41,424.461 341.931,427.102 
	341.931,428.061 341.451,430.461 341.451,431.182 341.21,433.102 341.21,434.062 340.492,441.744 340.011,446.064 340.011,447.024 
	338.572,463.585 337.132,472.947 337.132,473.186 337.132,473.907 337.132,474.386 336.652,475.347 336.171,476.307 
	334.492,479.187 333.773,480.387 333.533,480.867 333.292,481.347 330.892,487.108 329.933,489.749 327.535,495.028 
	327.292,495.749 327.292,495.989 327.054,496.228 326.333,497.189 323.695,501.749 320.814,507.03 320.335,507.51 317.935,511.83 
	316.255,514.71 312.896,520.953 311.216,523.832 310.736,524.551 310.498,525.272 307.376,531.032 305.218,534.632 305.218,534.873 
	304.978,535.353 304.738,535.593 304.257,536.073 303.298,537.033 303.058,537.273 302.818,537.513 300.179,541.833 296.82,547.354 
	293.701,549.035 293.46,549.035 292.5,549.274 289.14,549.514 288.9,551.434 288.66,552.634 288.421,553.115 289.621,555.994 
	290.58,556.235 291.06,557.435 290.58,559.595 285.781,567.996 283.861,571.116 279.542,576.397 277.623,578.797 276.904,579.517 
	276.423,579.998 276.423,580.237 276.183,580.237 274.984,581.198 274.503,581.437 272.824,582.877 271.623,583.837 
	270.904,584.557 270.185,585.038 267.544,587.198 267.544,588.158 267.304,589.119 267.304,589.358 267.304,589.837 
	267.064,590.798 266.345,591.758 266.105,591.999 265.865,592.239 264.906,592.478 263.705,592.958 262.025,593.918 
	261.785,593.918 259.867,594.639 258.906,595.119 258.425,595.359 258.185,595.598 257.226,595.839 256.505,596.319 
	256.267,596.319 255.546,596.558 255.306,596.798 254.587,597.279 253.388,597.999 251.947,598.958 251.708,599.199 
	250.748,599.679 250.507,599.919 249.789,600.399 248.587,601.119 247.869,601.599 247.628,601.839 247.148,602.08 246.189,602.56 
	245.949,602.799 245.708,603.04 244.988,603.519 244.509,603.759 244.269,603.759 243.789,604.24 242.83,604.959 241.388,605.679 
	237.07,609.76 234.671,611.68 234.431,612.64 234.191,613.601 233.951,614.321 233.47,614.561 233.23,615.041 232.751,615.52 
	232.751,615.761 232.511,616.001 232.031,616.241 231.55,616.481 231.072,616.72 230.351,617.201 228.912,617.92 228.193,618.16 
	227.951,618.401 227.472,618.881 226.751,619.361 226.511,619.601 226.033,620.082 224.113,621.761 223.873,622.241 
	221.712,624.402 220.513,625.841 220.273,625.841 220.273,626.082 219.314,627.522 216.433,631.603 215.474,632.802 
	213.074,635.443 213.074,635.923 212.833,636.643 211.875,639.523 211.634,639.763 207.796,644.324 207.796,644.564 
	207.316,644.803 207.076,645.764 203.237,652.244 203.237,652.485 202.517,653.685 200.837,656.565 200.357,657.765 
	199.638,658.725 199.158,659.445 198.677,660.645 197.718,662.326 197.478,663.285 197.718,664.006 199.877,665.926 
	199.638,667.366 198.198,668.806 197.958,669.046 197.718,669.285 195.558,671.926 192.199,675.527 190.039,679.127 188.12,682.007 
	182.841,690.649 181.161,697.128 181.161,697.369 179.722,699.769 177.562,700.73 177.322,700.73 176.122,701.45 175.642,701.929 
	173.722,703.369 173.002,704.09 171.803,705.049 171.323,705.53 167.244,709.611 166.522,710.57 163.164,714.651 163.164,714.41 
	162.205,713.931 161.965,713.691 159.325,714.17 159.085,714.17 158.125,714.651 157.406,715.131 153.566,717.051 152.847,717.291 
	151.646,717.532 150.687,717.771 150.447,718.011 150.207,718.011 149.247,718.011 147.567,718.011 141.568,717.291 
	140.609,717.291 139.889,716.571 138.688,714.651 140.369,706.73 140.609,706.49 140.609,706.25 141.568,701.929 141.568,701.209 
	142.049,699.049 142.289,698.329 142.289,698.089 142.528,696.889 143.248,695.209 143.248,694.729 143.969,692.808 
	143.969,692.569 144.687,690.888 144.928,690.649 145.408,689.449 145.888,688.249 146.606,687.048 146.606,686.808 
	147.087,686.087 147.087,685.848 147.328,685.608 149.008,682.487 149.487,681.288 150.927,678.407 153.326,673.847 
	154.046,672.407 154.526,671.686 155.246,670.246 155.966,668.328 156.445,666.406 157.166,664.246 157.166,664.006 
	157.166,663.765 158.604,655.365 158.365,651.044 158.365,650.804 158.125,650.565 157.406,649.604 157.166,649.604 
	154.286,646.244 153.566,646.003 152.126,645.284 147.328,643.603 141.808,641.683 141.328,641.683 140.609,641.444 
	139.168,641.203 138.208,640.963 137.969,640.963 135.57,641.203 133.169,641.203 130.291,640.963 126.931,640.483 126.21,640.244 
	126.451,638.803 127.411,637.843 127.411,637.363 126.931,636.163 126.931,635.923 126.931,635.682 125.971,635.203 
	124.771,634.244 123.332,634.002 122.612,634.723 121.892,635.203 120.932,634.723 118.533,634.723 113.253,636.163 
	110.854,635.443 109.894,635.203 108.454,635.203 108.215,635.443 107.735,635.682 106.775,636.403 104.854,639.523 
	103.895,641.444 101.736,644.564 101.255,644.324 99.096,642.164 96.936,640.003 95.017,637.843 95.257,635.682 95.497,633.523 
	94.057,628.242 92.618,625.841 86.139,620.082 84.699,620.082 82.779,619.121 82.059,618.641 79.419,617.441 78.22,616.72 
	77.979,616.72 77.5,615.52 77.74,614.801 77.74,613.84 77.5,613.361 75.82,609.281 75.82,609.041 75.341,609.041 73.42,608.56 
	72.221,608.081 71.261,607.84 69.101,609.281 68.862,609.281 68.142,611.201 67.421,612.16 66.702,611.44 63.583,608.56 
	61.423,605.919 59.982,602.08 59.022,599.439 58.784,597.759 58.784,597.519 58.304,597.04 57.344,595.598 55.424,594.639 
	52.544,594.878 51.825,595.359 51.104,596.079 50.385,596.798 44.625,591.758 43.666,590.078 43.666,588.877 43.666,588.398 
	43.426,587.918 42.947,586.478 42.706,585.757 42.706,585.518 42.467,585.518 41.746,585.278 40.787,584.797 39.347,584.318 
	37.428,583.598 37.428,583.357 35.268,581.917 32.868,578.797 31.667,576.397 30.949,574.477 29.509,571.357 27.829,568.236 
	27.829,567.996 25.43,568.236 23.75,567.515 20.39,565.116 18.951,563.916 18.71,563.916 18.71,563.675 18.471,563.195 
	18.23,561.994 12.231,561.515 11.992,561.515 11.751,561.515 10.312,558.635 10.073,556.715 10.073,555.994 10.073,555.755 
	10.553,550.954 13.912,550.714 14.152,549.994 13.912,549.994 13.671,549.753 13.432,549.753 13.432,548.553 13.432,546.874 
	14.152,542.314 14.152,540.874 14.152,539.673 13.192,539.433 12.711,538.233 12.952,537.513 14.391,535.833 16.071,533.913 
	17.031,531.752 17.271,531.512 17.75,530.312 17.511,527.432 17.031,526.472 16.071,525.751 15.592,525.751 14.632,525.511 
	13.432,524.311 12.711,523.591 11.992,522.871 11.512,522.631 11.512,522.391 10.553,521.91 10.312,521.671 8.393,520.231 
	7.913,519.031 7.673,518.791 7.673,518.071 7.673,517.351 7.433,515.67 7.193,513.75 7.193,512.31 7.193,512.07 7.673,511.35 
	7.913,510.63 9.113,509.669 9.352,509.669 10.073,508.95 10.553,508.23 11.032,507.75 11.271,507.51 11.751,507.269 12.711,507.03 
	13.432,506.31 13.432,506.07 14.152,505.349 14.632,504.869 14.632,504.629 14.871,504.389 15.112,504.149 15.112,503.91 
	15.592,503.19 16.311,502.469 16.551,502.229 17.031,501.269 17.511,500.79 17.991,499.109 18.23,498.869 18.71,495.989 
	18.71,495.749 18.71,493.348 19.19,492.628 19.91,492.148 21.59,491.428 22.31,489.749 22.55,489.028 22.79,488.548 23.51,487.348 
	24.229,487.108 24.709,487.348 24.95,487.348 24.95,487.587 25.669,487.828 25.91,487.348 26.148,486.388 25.91,485.908 
	26.148,484.467 26.389,483.507 26.389,482.787 26.628,482.067 26.869,481.586 26.869,481.347 27.349,480.387 27.589,479.667 
	27.829,479.187 28.549,477.027 28.789,476.307 29.269,474.866 29.269,473.907 29.749,473.426 30.229,472.707 31.909,471.746 
	32.868,470.546 "/>
</svg>
