<svg xmlns="http://www.w3.org/2000/svg" xmlns:xlink="http://www.w3.org/1999/xlink" version="1.1" id="Your_Icon" x="0px" y="0px" width="100px" height="100px" viewBox="0 0 100 100" enable-background="new 0 0 100 100" xml:space="preserve">
<g>
	<path d="M81.43,66C81.162,65.968,77,65.714,77,61.143v0.287c-2.771-29.564-17.551-37.073-25.93-37.073   c-8.377,0-23.534,7.721-26.07,36.786l0,0c0,0-0.906,4.764-4.429,4.857C20.273,66.114,19,66.422,19,68c0,1.25,0,4,0,4s19.25-2,32-2   s32,2,32,2s0-2.625,0-4S82.156,66.094,81.43,66z"/>
	<circle cx="51" cy="22" r="4.571"/>
</g>
<path d="M51,84.143c5.055,0,9.143-4.143,9.143-9.143c0,0-2.643-1-9.143-1s-9.143,1-9.143,1C41.857,80,45.946,84.143,51,84.143z"/>
</svg>