<?xml version="1.0"?>
<svg width="200" height="200" xmlns="http://www.w3.org/2000/svg" xmlns:svg="http://www.w3.org/2000/svg">
 <g>
  <title>Layer 1</title>
  <path fill="black" id="svg_1" d="m153.956985,48.580624c-12.252899,-8.184601 -29.463158,-13.007706 -51.154793,-14.33762c-3.542587,-0.218052 -7.049736,-0.326004 -10.426247,-0.326004c-42.141155,0 -67.399719,16.911095 -69.301641,46.398109c-2.076834,32.256943 23.950026,52.425903 71.40283,55.334015c0.98085,0.060455 1.999336,0.101471 3.11747,0.125229l35.427979,19.227646l0.464966,-6.893555c-0.006653,-0.103622 -0.582321,-7.57576 6.26149,-18.124405c17.821365,-9.197166 32.985825,-17.537209 34.458191,-40.407013c1.111496,-17.22847 -5.889526,-31.406322 -20.250244,-40.996403zm-78.454773,44.692532c-1.638435,1.584671 -3.578003,2.377014 -5.81868,2.377014c-2.26947,0 -4.222305,-0.785866 -5.860748,-2.355431c-1.638443,-1.569557 -2.457661,-3.447845 -2.457661,-5.632706s0.819218,-4.076111 2.457661,-5.673744c1.638443,-1.597618 3.593491,-2.396431 5.860748,-2.396431c2.240677,0 4.180244,0.805283 5.81868,2.41803c1.638443,1.610573 2.457664,3.495346 2.457664,5.654297s-0.819221,4.024292 -2.457664,5.608971zm28.234337,0c-1.638451,1.584671 -3.578011,2.377014 -5.818687,2.377014c-2.269463,0 -4.222305,-0.785866 -5.860748,-2.355431c-1.638443,-1.569557 -2.457664,-3.447845 -2.457664,-5.632706s0.819221,-4.076111 2.457664,-5.673744c1.638443,-1.597618 3.593506,-2.396431 5.860748,-2.396431c2.240677,0 4.180237,0.805283 5.818687,2.41803c1.638435,1.610573 2.457649,3.495346 2.457649,5.654297s-0.817001,4.024292 -2.457649,5.608971zm28.236534,0c-1.638428,1.584671 -3.578003,2.377014 -5.818672,2.377014c-2.26947,0 -4.222313,-0.785866 -5.860756,-2.355431c-1.638435,-1.569557 -2.457657,-3.447845 -2.457657,-5.632706s0.819221,-4.076111 2.457657,-5.673744c1.638443,-1.597618 3.593498,-2.396431 5.860756,-2.396431c2.240669,0 4.180244,0.805283 5.818672,2.41803c1.638458,1.610573 2.457672,3.495346 2.457672,5.654297s-0.819214,4.024292 -2.457672,5.608971z"/>
 </g>
</svg>