<svg xmlns="http://www.w3.org/2000/svg" xmlns:xlink="http://www.w3.org/1999/xlink" version="1.1" id="Television" x="0px" y="0px" width="100px" height="100px" viewBox="0 0 100 100" enable-background="new 0 0 100 100" xml:space="preserve">
<path fill="#000000" d="M97.012,15.987c1.651,0,2.988,1.338,2.988,2.99v61.942c0,1.65-1.337,2.988-2.988,2.988H2.988  C1.336,83.907,0,82.569,0,80.919V18.977c0-1.651,1.336-2.99,2.988-2.99H97.012z M3.074,18.826v57.463h93.853V18.826H3.074z   M96.067,79.516c0-0.54-0.438-0.98-0.979-0.98h-0.955c-0.542,0-0.98,0.44-0.98,0.98l0,0c0,0.543,0.438,0.98,0.98,0.98h0.955  C95.629,80.496,96.067,80.059,96.067,79.516L96.067,79.516z"/>
</svg>