<svg xmlns="http://www.w3.org/2000/svg" xmlns:xlink="http://www.w3.org/1999/xlink" version="1.1" x="0px" y="0px" width="100px" height="100px" viewBox="0 0 100 100" enable-background="new 0 0 100 100" xml:space="preserve">
<g id="Captions">
</g>
<g id="Your_Icon">
	<path fill="#000000" d="M59.519,3.586c1.422,0.363,2.812,0.846,4.155,1.47c1.454,0.663,4.812,1.77,5.665,3.199   c1.715,2.884-2.797,1.478-3.855,1.066c-1.138-0.442-2.401-0.782-3.286-1.572c-0.799-0.687-1.083-1.556-2.022-2.243   c-1.186-0.854-6.669-2.544-6.131,0.601c1.248-0.183,2.006,0.576,3.104,0.877c1.209,0.323,2.607-0.032,3.753,0.442   c-0.048,1.177,0.047,2.488,0.655,3.483c0.964-0.442,2.916-0.758,3.982-0.371c0.987,0.355,1.478,1.517,2.37,2.015   c0.568,0.301,1.557,0.063,2.007,0.561c1.319,1.446-0.728,2.039-0.34,3.508c0.323,1.249,1.358-2.062,1.817-2.109   c0.331,1.059,1.793,1.288,2.749,1.676c0.189,1.311-0.972,1.351-2.055,1.24c0.063,3.191-2.52,1.975-4.219,2.938   c-1.714,0.972-2.488,3.019-2.741,4.78c-0.371,2.6-2.212,3.199-3.089,5.222c-1.091,2.513,2.181,3.113,1.58,5.144   c-1.73-0.316-2.434-2.536-4.346-3.073c-2.599-0.743-10.333,1.217-11.511,3.981c-1.375,3.2,1.659,7.728,5.364,6.163   c1.28-0.537,2.165-3.927,3.998-2.789l0.245,2.409c0.205,3.082,4.439,6.092,5.245,7.253c0.79,1.13,3.413,1.517,4.749,1.754   c1.438,4.653-7.063-0.821-7.917-1.351c-0.688-0.419-1.248-1.178-1.936-1.557c-0.995-0.529-2.314-0.301-3.294-0.68   c-1.51-0.568-2.26-1.358-4.188-1.453c-4.053-0.198-7.758-0.695-10.034-4.361c-1.398-2.252-4.978-9.465-7.988-8.746   c-0.316,3.531,7.45,5.19,5.602,8.69c-2.654,0.332-4.582-4.851-5.901-6.747c-1.976-2.859-5.175-5.594-4.978-9.22   c0.079-1.557,0.75-2.86,0.624-4.433c-0.134-1.643-0.869-3.112-1.051-4.787c-0.624-5.91-3.555-0.411-6.889-1.082   c0.079-2.078,2.347-2.623,3.737-3.816c1.462-1.264,3.113-2.544,4.993-3.199c2.228-0.774,4.717,0.11,6.992-0.459   c1.912-0.466,2.789-2.322,4.598-2.971c0.956-0.34,1.856,0.024,2.718,0.056c1.288,0.04,0.964,0.229,2.102-0.269   c1.849-0.806,2.709-1.777,4.843-1.983c0.68-0.062,1.367-0.11,2.039-0.134c-0.411-0.008-0.814-0.023-1.225-0.023   c-26.443,0-47.893,21.109-47.893,47.15c0,26.048,21.45,47.166,47.893,47.166c26.451,0,47.893-21.118,47.893-47.166   C98.104,26.932,81.521,7.852,59.519,3.586z M76.047,40.955c0.339,0,0.703,0.127,1.019,0.245c0.087,0.324,0.095,0.821,0,1.146   c-1.082,0.023-1.651-0.656-0.593-1.177L76.047,40.955z M61.178,38.846c-0.016-0.276-0.039-0.506,0-0.782   c0.284,0,0.585,0.016,0.885,0.04c-0.023-0.024-0.056-0.04-0.071-0.063l0.562,0.11c0.561,0.063,1.098,0.158,1.532,0.309   l-1.532-0.309c-0.166-0.016-0.324-0.031-0.49-0.047c0.466,0.497,1.217,0.284,1.872,0.418c0.04-0.008,0.079-0.023,0.111-0.031   c0.008,0.023,0.008,0.031,0.016,0.048c0.261,0.079,0.514,0.229,0.711,0.513c1.059-0.244,1.698,0.909,3.065,0.688   c0.118,0.355,0.442,0.877,0.514,1.209c0.158,0.071,0.142-0.261,0.308-0.174c0,0.023,0.008,0.569,0.008,0.569   c-1.928,0.466-1.351-0.822-2.307-1.352c-1.011-0.553-2.054,0.11-2.299-1.453c-0.04-0.009-0.087-0.017-0.127-0.017   C63.113,38.728,62.11,38.94,61.178,38.846z M66.218,42.804c-0.016-0.269-0.023-0.497,0-0.774c0.419-0.095,0.767-0.023,1.075,0.143   l-0.475-0.379c0.664,0.205,1.13,0.418,1.232,1.011C67.569,42.923,66.692,42.923,66.218,42.804z M84.595,75.899   c-3.097,2.504-5.325,6.123-8.706,8.271c-2.654,1.675-5.957,3.239-8.446,5.167c-1.208,0.94-2.448,1.976-3.823,2.853   c-1.24,0.806-3.073,1.153-3.942,2.354h-0.419c3.129-5.072,8.288-8.857,10.966-14.293c2.623-5.34-4.101-10.705-5.768-15.729   c-0.584-1.746-0.576-3.745,0.261-5.214c0.877-1.549,2.41-2.229,2.892-3.967c0.529-1.92-0.157-3.271,0.98-5.111   c1.295-2.07,2.37-2.679,4.945-2.6c2.521,0.071,5.522,0.174,7.292,2.149c0.869,0.964,0.695,2.322,2.157,3.025   c0.671,0.324,1.729-0.008,2.473,0.293c1.738,0.679,2.204,2.299,2.852,3.808c1.043,2.41,2.387,2.766,4.709,3.682   c0.987,2.268-3.373,6.779-4.408,9.141C87.471,72.273,86.681,74.209,84.595,75.899z"/>
</g>
</svg>