<svg xmlns="http://www.w3.org/2000/svg" xmlns:xlink="http://www.w3.org/1999/xlink" version="1.1" id="Your_Icon" x="0px" y="0px" width="100px" height="100px" viewBox="0 0 100 100" enable-background="new 0 0 100 100" xml:space="preserve">
<path fill="#000000" d="M96,54.597C96,33.5,81.643,15.698,62.187,10.435C61.397,4.552,56.348,0,50.252,0  c-6.095,0-11.145,4.552-11.935,10.435C18.862,15.698,4.505,33.5,4.505,54.597c0,5.303,0.91,10.396,2.577,15.136  c-1.612,2.049-2.577,4.63-2.577,7.433c0,6.642,5.403,12.045,12.045,12.045c1.145,0,2.251-0.164,3.301-0.464  c8.088,7.208,18.74,11.597,30.401,11.597c11.661,0,22.313-4.389,30.401-11.597c1.05,0.3,2.157,0.464,3.302,0.464  C90.596,89.211,96,83.808,96,77.166c0-2.803-0.965-5.384-2.577-7.433C95.09,64.994,96,59.9,96,54.597z M89.609,54.597  c0,3.896-0.572,7.66-1.632,11.216c-1.259-0.447-2.612-0.693-4.022-0.693c-2.97,0-5.69,1.082-7.792,2.87l-14.516-9.889  c0.42-1.223,0.651-2.533,0.651-3.897c0-5.536-3.755-10.208-8.85-11.612V23.657c3.533-0.973,6.42-3.517,7.859-6.833  C77.643,21.613,89.609,36.733,89.609,54.597z M44.598,54.205c0-3.118,2.537-5.655,5.654-5.655c3.118,0,5.654,2.537,5.654,5.655  c0,3.118-2.536,5.654-5.654,5.654C47.135,59.859,44.598,57.323,44.598,54.205z M50.252,6.391c3.118,0,5.654,2.537,5.654,5.655  c0,3.118-2.536,5.654-5.654,5.654c-3.118,0-5.654-2.537-5.654-5.654C44.598,8.928,47.135,6.391,50.252,6.391z M39.198,16.825  c1.439,3.315,4.326,5.859,7.859,6.832v18.936c-5.096,1.404-8.85,6.076-8.85,11.612c0,1.364,0.231,2.674,0.651,3.897l-14.515,9.889  c-2.102-1.788-4.822-2.87-7.792-2.87c-1.41,0-2.763,0.246-4.022,0.693c-1.06-3.556-1.633-7.32-1.633-11.216  C10.896,36.733,22.861,21.613,39.198,16.825z M10.896,77.166c0-3.118,2.537-5.655,5.654-5.655c3.118,0,5.654,2.537,5.654,5.655  c0,3.118-2.536,5.654-5.654,5.654C13.433,82.82,10.896,80.284,10.896,77.166z M25.525,85.189c1.908-2.132,3.07-4.943,3.07-8.022  c0-1.364-0.231-2.674-0.651-3.897l14.516-9.89c2.102,1.788,4.822,2.87,7.792,2.87c2.97,0,5.69-1.082,7.792-2.87l14.515,9.889  c-0.42,1.223-0.651,2.533-0.651,3.897c0,3.079,1.163,5.891,3.07,8.023c-6.762,5.478-15.367,8.765-24.727,8.765  C40.892,93.954,32.287,90.666,25.525,85.189z M83.955,82.82c-3.118,0-5.654-2.537-5.654-5.654c0-3.118,2.536-5.655,5.654-5.655  c3.118,0,5.654,2.537,5.654,5.655C89.609,80.284,87.073,82.82,83.955,82.82z"/>
</svg>