<?xml version="1.0"?>
<svg width="300" height="300" xmlns="http://www.w3.org/2000/svg" xmlns:svg="http://www.w3.org/2000/svg">
 <g>
  <title>Layer 1</title>
  <g stroke="null" id="svg_12">
   <circle stroke="null" id="svg_1" r="20.556749" cy="59.603679" cx="199.490323" fill="#000000"/>
   <path stroke="null" id="svg_10" d="m185.968964,99.534729c0,-3.348816 -1.22818,-6.396111 -3.22644,-8.708672c-2.287766,-2.649178 -5.595718,-4.326515 -9.280304,-4.326515l-48.692032,0c-3.684586,0 -6.992546,1.677338 -9.283112,4.326515c-1.998268,2.312561 -3.229286,5.359856 -3.229286,8.708672l0,57.257629c0,6.50148 4.597992,11.893524 10.581581,12.862442c0.629532,0.102478 1.27034,0.172745 1.927994,0.172745l6.638428,0l-0.20517,3.01506c-0.019684,0.298599 -0.036545,0.480103 -0.036545,0.670364l0,82.622528c0,5.184204 4.049957,9.399506 9.027359,9.399506l17.829865,0c4.980194,0 9.032959,-4.212372 9.032959,-9.399506l0,-82.628372c0,-0.196136 -0.016876,-0.392242 -0.030914,-0.585464l-0.210785,-3.023895l2.903244,-0.073151l3.735168,0c0.654831,0 1.298447,-0.067337 1.928009,-0.172729c5.986374,-0.968918 10.584381,-6.360992 10.584381,-12.862473l0.0056,-57.254684z" fill="#000000"/>
   <path stroke="null" id="svg_2" d="m221.136871,90.826057l-31.837433,0c1.32373,2.602341 2.079758,5.561829 2.079758,8.708672l0,60.073654l-0.207977,0c-0.907791,6.2117 -4.766602,11.422256 -10.033493,14.03923l0,70.459671c0,5.998016 4.665436,10.8573 10.429779,10.8573l15.848465,0c5.767166,0 10.432571,-4.859283 10.432571,-10.8573l0,-73.439621c0,-0.260559 -0.019669,-0.515198 -0.036514,-0.772812l3.319199,0c7.464722,0 13.526962,-6.308289 13.526962,-14.089005l0.002808,0l0,-50.890778c-0.005615,-7.783638 -6.05661,-14.089012 -13.524124,-14.089012z" fill="#000000"/>
   <circle id="svg_3" r="20.556749" cy="59.603679" cx="247.904121" fill="#000000"/>
   <path stroke="null" id="svg_4" d="m269.547821,90.826057l-31.837418,0c1.323746,2.602341 2.079788,5.561829 2.079788,8.708672l0,60.073654l-0.207977,0c-0.907791,6.2117 -4.766632,11.422256 -10.033524,14.03923l0,70.459671c0,5.998016 4.665451,10.8573 10.42981,10.8573l15.848434,0c5.769958,0 10.435455,-4.859283 10.435455,-10.8573l0,-73.439621c0,-0.260559 -0.022522,-0.515198 -0.039368,-0.772812l3.319214,0c7.467499,0 13.526947,-6.308289 13.526947,-14.089005l0.002808,0l0,-50.890778c-0.002808,-7.783638 -6.056641,-14.089012 -13.52417,-14.089012z" fill="#000000"/>
   <circle stroke="null" id="svg_5" r="20.556742" cy="59.603679" cx="98.730827" fill="#000000"/>
   <path stroke="null" id="svg_6" d="m106.847572,156.789413l0,-57.257622c0,-3.143906 0.758835,-6.103394 2.082588,-8.708664l-31.834618,0c-7.473145,0 -13.52697,6.305367 -13.52697,14.089012l0,50.893707c0,7.777802 6.053825,14.089005 13.521339,14.089005l3.322029,0c-0.016861,0.257614 -0.039345,0.512253 -0.039345,0.772812l0,73.439621c0,5.998016 4.668251,10.8573 10.429787,10.8573l15.851265,0c5.767159,0 10.432602,-4.859283 10.432602,-10.8573l0,-70.477219c-6.042595,-3.003387 -10.238678,-9.414139 -10.238678,-16.840652z" fill="#000000"/>
   <circle stroke="null" id="svg_7" r="20.556746" cy="59.603679" cx="51.233254" fill="#000000"/>
   <path stroke="null" id="svg_8" d="m59.350006,156.789413l0,-57.257622c0,-3.143906 0.758827,-6.103394 2.079765,-8.708664l-31.831802,0c-7.473137,0 -13.526968,6.305367 -13.526968,14.089012l0,50.893707c0,7.777802 6.053831,14.089005 13.521349,14.089005l3.322021,0c-0.016865,0.257614 -0.039352,0.512253 -0.039352,0.772812l0,73.439621c0,5.998016 4.668255,10.8573 10.429798,10.8573l15.84845,0c5.767159,0 10.432602,-4.859283 10.432602,-10.8573l0,-70.477219c-6.039787,-3.003387 -10.235863,-9.414139 -10.235863,-16.840652z" fill="#000000"/>
   <path stroke="null" id="svg_9" d="m149.109177,81.476334c11.579285,0 20.997284,-9.812256 20.997284,-21.875591c0,-12.060379 -9.420807,-21.872635 -20.997284,-21.872635c-11.5793,0 -21.002914,9.812256 -21.002914,21.872635c0.002808,12.063335 9.423615,21.875591 21.002914,21.875591z" fill="#000000"/>
  </g>
 </g>
</svg>