<?xml version="1.0" encoding="utf-8"?>
<!-- Generator: Adobe Illustrator 15.1.0, SVG Export Plug-In . SVG Version: 6.00 Build 0)  -->
<!DOCTYPE svg PUBLIC "-//W3C//DTD SVG 1.1//EN" "http://www.w3.org/Graphics/SVG/1.1/DTD/svg11.dtd">
<svg version="1.1" id="Layer_1" xmlns="http://www.w3.org/2000/svg" xmlns:xlink="http://www.w3.org/1999/xlink" x="0px" y="0px"
	 width="96px" height="100px" viewBox="0 0 96 100" enable-background="new 0 0 96 100" xml:space="preserve">
<path d="M83.803,13.197C74.896,5.009,63.023,0,50,0C22.43,0,0,22.43,0,50s22.43,50,50,50c13.763,0,26.243-5.59,35.293-14.618
	l-9.895-9.895C68.883,81.979,59.902,86,50,86c-19.851,0-36-16.149-36-36s16.149-36,36-36c9.164,0,17.533,3.447,23.895,9.105L62,35
	h20.713H96v-4.586V1L83.803,13.197z"/>
</svg>
