<?xml version="1.0"?>
<svg width="512" height="512" xmlns="http://www.w3.org/2000/svg" xmlns:svg="http://www.w3.org/2000/svg">
 <g>
  <title>Layer 1</title>
  <g id="svg_3">
   <path fill="#000000" d="m427.274994,280.19101c24.738007,0.097992 49.46701,-0.040985 74.203003,0.067993c-100.90799,107.292999 0,0 -100.90799,107.292999c-100.826019,-107.243988 0,0 -100.826019,-107.243988c24.707001,-0.246002 49.414001,0.061005 74.123016,-0.14801c0.097992,-33.993988 0.048981,-67.98999 0.019989,-101.985016c-26.708984,-0.235992 -127.365982,0.029022 -154.084991,-0.138977c-17.195007,-17.934021 -34.934006,-35.356018 -51.949005,-53.459c56.269989,0 175.429016,-0.129013 259.428986,-0.129013l-0.006989,155.743011z" id="svg_4"/>
  </g>
  <path fill="#000000" d="m84.723,231.80899c-24.737,-0.098022 -49.466,0.040985 -74.202999,-0.067017c100.907993,-107.293976 0,0 100.907993,-107.293976c100.828003,107.243988 0,0 100.828003,107.243988c-24.707993,0.246033 -49.416,-0.060974 -74.123993,0.14801c-0.098007,33.994995 -0.049011,67.990997 -0.018997,101.985016c26.709,0.235992 127.365997,-0.029022 154.083984,0.138977c17.195007,17.934021 34.934021,35.355011 51.949005,53.459015c-56.269989,0 -175.429993,0.128998 -259.429993,0.128998l0.006996,-155.742981l0,-0.000031z" id="svg_2"/>
 </g>
</svg>