<?xml version="1.0"?>
<svg width="100" height="125" xmlns="http://www.w3.org/2000/svg">

 <g>
  <title>background</title>
  <rect fill="none" id="canvas_background" height="127" width="102" y="-1" x="-1"/>
 </g>
 <g>
  <title>Layer 1</title>
  <g id="Captions"/>
  <g id="Your_Icon">
   <path id="svg_1" d="m90.302002,66l-80.604002,0c-1.998,0 -3.698,1.696991 -3.698,3.695999l0,51.670998c0,1.997993 1.7,3.633003 3.698,3.633003l80.604002,0c2,0 3.697998,-1.63501 3.697998,-3.633003l0,-51.670998c0,-1.999008 -1.697998,-3.695999 -3.697998,-3.695999zm-20.112,49.72599c-1.121002,1.122009 -12.488003,1.281013 -25.527004,1.281013c-14.247997,0 -28.088999,-0.214012 -29.155998,-1.281013c-1.068,-1.068001 -2.243,-10.085999 -2.243,-20.077995c0,-10.244003 1.015,-19.171997 2.243,-20.399994c1.228001,-1.228004 15.808001,-1.815002 29.369999,-1.815002c13.776001,0 24.298004,0.801003 25.313004,1.815002c1.014,1.015991 2.027,9.800995 2.027,19.759003c0.000999,10.274994 -0.905006,19.596992 -2.027,20.718987zm17.809998,-1.318001c0,0.666008 -0.411003,1.59201 -1.079002,1.59201l-6.228996,0c-0.666,0 -1.692001,-0.926003 -1.692001,-1.59201l0,-37.735992c0,-0.666 1.026001,-1.671997 1.692001,-1.671997l6.228996,0c0.667999,0 1.079002,1.005997 1.079002,1.671997l0,37.735992z"/>
   <circle id="svg_2" r="1.816" cy="79.410996" cx="83.808"/>
   <circle id="svg_3" r="1.816" cy="84.432996" cx="83.808"/>
   <path id="svg_4" d="m85.624001,89.559998c0,1.001999 -0.814003,1.813995 -1.816002,1.813995c-1.003998,0 -1.816002,-0.811996 -1.816002,-1.813995c0,-1.004997 0.812004,-1.816002 1.816002,-1.816002c1.001999,-0.000999 1.816002,0.811005 1.816002,1.816002z"/>
   <circle id="svg_5" r="3.222" cy="99.454996" cx="83.807"/>
   <circle id="svg_6" r="3.222" cy="110.207996" cx="83.807"/>
   <path id="svg_7" d="m52.484001,58.743996c-0.288002,-0.071999 -0.578003,-0.134998 -0.871002,-0.191002c-0.972,-0.183998 -1.973999,-0.280998 -2.997997,-0.280998c-1.208,0 -2.384003,0.135002 -3.515003,0.388c-0.294998,0.066998 -0.585999,0.140999 -0.875,0.223999c-4.354,1.238003 -7.952,2.138 -9.942997,6.117004l28.666,0c-2.070004,-4.139004 -5.877003,-5.118004 -10.464001,-6.257004z"/>
   <path id="svg_8" d="m26.937,29.373997c-0.129,-0.198 -0.394001,-0.253 -0.591,-0.125c-0.198,0.128 -0.254002,0.393 -0.126001,0.591l18.006002,28.289001c0.288998,-0.082001 0.579998,-0.157001 0.875,-0.222l-18.164001,-28.533001z"/>
   <path id="svg_9" d="m70.718002,29.161997c-0.207001,-0.114 -0.467003,-0.040001 -0.580002,0.167l-18.525002,28.470999c0.292999,0.055 0.583,0.119003 0.871002,0.190002l18.400002,-28.247002c0.112999,-0.207001 0.038994,-0.466 -0.166,-0.580999z"/>
  </g>
 </g>
</svg>