<svg xmlns="http://www.w3.org/2000/svg" xmlns:xlink="http://www.w3.org/1999/xlink" version="1.1" id="Capa_1" x="0px" y="0px" width="90px" height="90px" viewBox="0 0 90 90" enable-background="new 0 0 90 90" xml:space="preserve">
<polygon points="50.893,26.571 45.513,16.174 40.136,26.571 28.075,28.241 36.801,36.359 34.748,47.813 45.513,42.403   56.281,47.813 54.229,36.359 62.961,28.241 "/>
<path d="M45.001,2.963c-16.553,0-30.018,12.851-30.018,28.646c0,15.799,13.465,28.653,30.018,28.653  c16.549,0,30.014-12.854,30.014-28.653C75.016,15.813,61.551,2.963,45.001,2.963z M45.001,55.676  c-13.918,0-25.24-10.797-25.24-24.067c0-13.266,11.322-24.059,25.24-24.059c13.914,0,25.235,10.793,25.235,24.059  C70.236,44.879,58.915,55.676,45.001,55.676z"/>
<path d="M27.59,59.528v27.509l17.848-10.419l17.098,9.912l0.065-27.002c0,0-7.115,5.376-18.252,5.348  C34.748,64.853,27.59,59.528,27.59,59.528z"/>
</svg>