<svg xmlns="http://www.w3.org/2000/svg" xmlns:xlink="http://www.w3.org/1999/xlink" version="1.1" id="Layer_1" x="0px" y="0px" width="100px" height="100px" viewBox="0 0 100 100" enable-background="new 0 0 100 100" xml:space="preserve">
<g>
	<path d="M84.603,15.353h-0.781V7.775c0-4.071-3.311-7.382-7.38-7.382c-4.07,0-7.381,3.311-7.381,7.382v7.578H57.922V7.775   c0-4.071-3.312-7.382-7.38-7.382c-4.071,0-7.382,3.311-7.382,7.382v7.578H32.021V7.775c0-4.071-3.311-7.382-7.379-7.382   c-4.071,0-7.381,3.311-7.381,7.382v7.578h-0.858c-7.62,0-13.818,6.198-13.818,13.817v56.619c0,7.619,6.198,13.817,13.818,13.817   h68.2c7.62,0,13.817-6.198,13.817-13.817V29.17C98.42,21.551,92.223,15.353,84.603,15.353z M73.205,7.775   c0-1.785,1.452-3.238,3.236-3.238c1.785,0,3.236,1.453,3.236,3.238v7.578v2.072v7.724c0,1.785-1.451,3.235-3.236,3.235   c-1.784,0-3.236-1.45-3.236-3.235v-7.724v-2.072V7.775z M47.304,7.775c0-1.785,1.453-3.238,3.238-3.238   c1.785,0,3.235,1.453,3.235,3.238v7.578v2.072v7.724c0,1.785-1.45,3.235-3.235,3.235c-1.785,0-3.238-1.45-3.238-3.235v-7.724   v-2.072V7.775z M21.405,7.775c0-1.785,1.453-3.238,3.237-3.238s3.235,1.453,3.235,3.238v7.578v2.072v7.724   c0,1.785-1.45,3.235-3.235,3.235s-3.237-1.45-3.237-3.235v-7.724v-2.072V7.775z M16.403,19.497h0.858v5.651   c0,4.069,3.311,7.379,7.381,7.379c4.069,0,7.379-3.31,7.379-7.379v-5.651H43.16v5.651c0,4.069,3.311,7.379,7.382,7.379   c4.068,0,7.38-3.31,7.38-7.379v-5.651h11.139v5.651c0,4.069,3.311,7.379,7.381,7.379c4.069,0,7.38-3.31,7.38-7.379v-5.651h0.781   c5.334,0,9.675,4.34,9.675,9.673v12.092H6.729V29.17C6.729,23.837,11.069,19.497,16.403,19.497z M84.603,95.462h-68.2   c-5.334,0-9.674-4.339-9.674-9.673V45.407h87.548v40.382C94.277,91.123,89.937,95.462,84.603,95.462z"/>
	<path d="M17.321,86.137h67.051V52.616H17.321V86.137z M21.466,71.769h8.793v10.225h-8.793V71.769z M59.268,71.769h8.287v10.225   h-8.287V71.769z M55.123,81.993h-8.288V71.769h8.288V81.993z M59.268,67.624V56.76h8.287v10.864H59.268z M55.123,67.624h-8.288   V56.76h8.288V67.624z M42.691,67.624h-8.288V56.76h8.288V67.624z M42.691,71.769v10.225h-8.288V71.769H42.691z M71.699,81.993   V71.769h8.529v10.225H71.699z M80.229,67.624h-8.529V56.76h8.529V67.624z M30.259,56.76v10.864h-8.793V56.76H30.259z"/>
</g>
</svg>