<svg xmlns="http://www.w3.org/2000/svg" xmlns:xlink="http://www.w3.org/1999/xlink" version="1.1" id="Your_Icon" x="0px" y="0px" width="100px" height="100px" viewBox="0 0 100 100" enable-background="new 0 0 100 100" xml:space="preserve">
<path d="M50.2,0.4c-27.46,0-49.801,22.34-49.801,49.801C0.399,77.66,22.74,100,50.2,100c27.459,0,49.8-22.34,49.8-49.799  C100,22.741,77.659,0.4,50.2,0.4z M50.2,93.023c-23.612,0-42.824-19.211-42.824-42.822c0-3.794,0.502-7.615,1.432-11.12  C9.004,39.118,9.204,39,9.41,39H10v3.393c0,1.448,1.315,2.624,2.763,2.624c0.245,0,0.547-0.044,0.772-0.107l5.518,5.482  c0.55,0.551,1.458,0.551,2.011,0c0.55-0.549,0.559-1.441,0.009-1.992l-5.354-5.594C15.738,42.67,16,42.533,16,42.393v-0.837  C16,40.424,16.651,40,17.779,39h3.282c0.618,0,1.183-0.045,1.675-0.341c0.059-0.035,0.119,0.005,0.175-0.033  c0.115-0.079,0.217-0.135,0.321-0.227c0.046-0.042,0.099-0.054,0.143-0.099l0.122-0.113l11.28-11.274  c1.251-1.252,1.251-3.28,0-4.531c-1.251-1.251-3.282-1.035-4.534,0.216L28.058,25H24v-3.391C24,21.553,24.352,22,24.348,21h4.565  c0.868,0,1.571-0.632,1.571-1.5S29.781,18,28.913,18h-7.249C29.246,12,39.247,7.457,50.2,7.457C60.732,7.457,70.383,11,77.849,18  h-3.581h-0.5h-5.024c-0.02,0-0.034-0.222-0.054-0.221c-0.32-0.016-0.646-0.025-0.891,0.22l-3.747,3.689  c-0.46,0.462-0.462,1.181,0,1.643c0.462,0.461,1.21,0.447,1.672-0.015l2.961-3.145c0.021,0,0.038-0.171,0.059-0.171h1.77  C70.489,21,70,20.673,70,20.84v0.525C70,22.903,68.952,24,67.412,24h-2.683C63.404,24,62,25.492,62,26.815V28h-0.605  C60.569,28,60,28.426,60,29.25c0,0.399,0,1.75,0,1.75c-1,0-1.25,0-1.682,0c-1.182,0-2.138,0.81-2.138,1.99  c0,1.18,0.956,1.827,2.138,1.827c0.522,0,0.991,0.183,1.36-0.817c0.001,0,0.003,0,0.003,0l0.289,0.074L63.409,31h1.221l2.758,2.629  c0.228,0.228,0.597,0.163,0.824-0.064c0.229-0.228,0.229-0.818,0-1.046L65.916,30h1.662l0.651,0.841  c1.291,1.29,3.384,1.196,4.674-0.094L73.557,30h2.85C76.514,30,77,30.361,77,30.347v1.706C77,32.051,76.666,32,76.637,32h-2.55  c-0.815,0-1.476,0.686-1.476,1.5c0,0.816,0.66,1.5,1.476,1.5h2.55C76.666,35,77,34.972,77,34.97v1.065C76,37.52,75.259,39,73.773,39  H67.05c-0.012,0-0.019-0.035-0.029-0.045l-3.019-3.023c-1.29-1.29-3.381-1.292-4.672-0.002l-3.018,3.027  C56.302,38.967,56.294,39,56.283,39h-1.788C52.671,39,51,40.458,51,42.284v6.533C51,50.639,52.671,52,54.495,52h6.415  c2.422,1,4.09,2.5,5.09,4.922v11.949C66,70.695,67.192,72,69.018,72h5.147C75.99,72,77,70.695,77,68.871V57.318l6.352-6.113  l0.233-0.117l0.129-0.07l0.214-0.006C84.452,50.427,85,49.662,85,48.816v-6.533C85,40.986,83.863,40,82.775,39h3.023  c0.088,2,1.519,3,3.287,3h3.225c0.459,3,0.712,5.325,0.712,7.965C93.022,73.576,73.813,93.023,50.2,93.023z"/>
<path d="M59.001,27.032c0.489,0,0.999-0.397,0.999-0.886v-2.189c0-0.49-0.51-0.887-0.999-0.887S58,23.467,58,23.957v2.189  C58,26.635,58.512,27.032,59.001,27.032z"/>
<path d="M29.733,49h-4.784C23.125,49,22,50.475,22,52.301v12.43c0,1.824,1.125,3.27,2.949,3.27H27v12.563  c0,1.771,1.729,3.205,3.5,3.205c1.77,0,3.5-1.435,3.5-3.205V73h-0.119C35.707,73,37,71.993,37,70.169V68h0.961  C39.787,68,41,66.555,41,64.73v-4.226c0-0.035,0.048-0.06,0.009-0.099L29.733,49z"/>
<path d="M52.824,15.999c0-1.796-1.458-2.999-3.256-2.999h-3.884c-1.796,0-3.008,1.293-3.008,3.089c0,0.24-0.676,0.309,0.324,0.535  V20c0,1.052,0.447,1.905,1.5,1.905S46,21.052,46,20v-1h3.568C51.366,19,52.824,17.797,52.824,15.999z"/>
<path d="M53.843,21h1.555c0.455,0,0.826-0.043,0.826-0.5S55.853,20,55.397,20h-1.555c-0.456,0-0.824,0.044-0.824,0.5  S53.387,21,53.843,21z"/>
<path d="M37.259,20.689c0.51-0.51,0.51-1.337,0-1.848l-3.574-3.572c-0.511-0.51-1.335-0.51-1.847,0  c-0.511,0.509-0.511,1.338,0,1.848l3.573,3.573C35.919,21.2,36.748,21.2,37.259,20.689z"/>
<path d="M82.502,62.496c-0.712,0-1.502,0.577-1.502,1.289v4.029c0,0.711,0.79,1.288,1.502,1.288c0.71,0,1.498-0.577,1.498-1.288  v-4.029C84,63.073,83.212,62.496,82.502,62.496z"/>
</svg>