<svg xmlns="http://www.w3.org/2000/svg" xmlns:xlink="http://www.w3.org/1999/xlink" version="1.0" id="Your_Icon" x="0px" y="0px" width="100px" height="100px" viewBox="0 0 100 100" enable-background="new 0 0 100 100" xml:space="preserve">
<path d="M17,17c-1.104,0-2-0.896-2-2V5c0-1.104,0.896-2,2-2s2,0.896,2,2v10C19,16.104,18.104,17,17,17z"/>
<path d="M39,17c-1.104,0-2-0.896-2-2V5c0-1.104,0.896-2,2-2s2,0.896,2,2v10C41,16.104,40.104,17,39,17z"/>
<path d="M60,17c-1.104,0-2-0.896-2-2V5c0-1.104,0.896-2,2-2s2,0.896,2,2v10C62,16.104,61.104,17,60,17z"/>
<path d="M81,17c-1.104,0-2-0.896-2-2V5c0-1.104,0.896-2,2-2s2,0.896,2,2v10C83,16.104,82.104,17,81,17z"/>
<path d="M85,10v5c0,2.209-1.791,4-4,4s-4-1.791-4-4v-5H64v5c0,2.209-1.791,4-4,4s-4-1.791-4-4v-5H43v5c0,2.209-1.791,4-4,4  s-4-1.791-4-4v-5H21v5c0,2.209-1.791,4-4,4s-4-1.791-4-4v-5H5v86h90V10H85z M14,24h35v3H14V24z M14,31h13v3H14V31z M8,39h84v40.879  L78.879,93H8V39z M83.121,93L92,84.121V93H83.121z"/>
<path d="M76,45h-2h-8h-2h-8h-2h-8h-2H34v10h-8h-2H14v10v2v8v2v10h10h2h8h2h8h2h10V77h8h2h8h2h10V67v-2v-8v-2V45H76z M24,85h-8v-8h8  V85z M24,75h-8v-8h8V75z M24,65h-8v-8h8V65z M34,85h-8v-8h8V85z M34,75h-8v-8h8V75z M34,65h-8v-8h8V65z M44,85h-8v-8h8V85z M44,75  h-8v-8h8V75z M44,65h-8v-8h8V65z M44,55h-8v-8h8V55z M54,85h-8v-8h8V85z M54,75h-8v-8h8V75z M54,65h-8v-8h8V65z M54,55h-8v-8h8V55z   M64,75h-8v-8h8V75z M64,65h-8v-8h8V65z M64,55h-8v-8h8V55z M84,57h-8v8h8v2h-8v8h-2v-8h-8v-2h8v-8h-8v-2h8v-8h2v8h8V57z"/>
</svg>